<svg xmlns="http://www.w3.org/2000/svg" width="24" height="24" fill="none"><path fill="#FFECB8" fill-rule="evenodd" d="M8.768 5.263c-5.38.241-5.748.655-5.748 6.265.012 4.91.425 6.61 1.632 6.61.07 0 .53.139 1.024.3 2.471.827 14.336-.058 14.83-1.115.391-.828.598-7.588.299-9.474-.31-1.908-1.08-2.506-3.116-2.46-1.747.046-1.483.782.288.782 1.322 0 1.334.034 1.357 5.438.023 5.173.034 5.047-.76 5.242-1.448.357-9.806.437-13.393.495-.333-.633-.402-.426-.735-5.438-.31-4.806-.3-4.829 3.07-5.277 2.356-.31 2.781-.345 5.345-.414 2.38-.07 2.76-.115 2.76-.288-.012-.528-3.15-.839-6.853-.666Zm9.025 1.943c-.39.31-1.288 1.264-4.23 4.403-.978 1.046-.943 1.046-1.944.345-1.529-1.058-2.85-1.863-3.885-2.794C6.262 7.838 5.33 7.32 5.009 7.642c-.196.196 1.471 1.564 3.69 3.806l.966.977c-.035.034-2.012 1.563-2.897 2.76-.598.804.034.953.563.574.552-.414 1.472-1.437 2.828-2.84l.483.196c.77.31 2.253.103 2.77-.38.369-.345.702-.46.702-.252 0 .149 2.403 2.517 3.254 3.253.483.414 1.908.874.7-.529-.884-1.012-2.632-2.77-3.264-3.207-.15-.104-.253-.207-.23-.23 1.667-1.081 3.391-2.909 3.99-3.967.746-1.276-.576-.747-.771-.597Z" clip-rule="evenodd"/></svg>