<svg xmlns="http://www.w3.org/2000/svg" width="1200" height="212" fill="none"><path fill="#FFECB8" d="M75.914 211.469c-8.346 0-18.024-.355-29.034-1.063-11.01-.708-24.683-1.063-41.02-1.063C1.953 204.561 0 198.982 0 192.607c6.038 0 10.3-.975 12.786-2.923 2.486-2.125 3.729-5.667 3.729-10.626V54.196c0-4.96-1.243-8.413-3.73-10.361C10.3 41.709 6.039 40.647 0 40.647 0 34.27 1.953 28.692 5.86 23.91c12.608 0 22.641-.089 30.1-.266 7.457-.354 13.761-.62 18.911-.797a480.98 480.98 0 0 1 15.982-.266c15.45 0 28.146 1.417 38.09 4.251 9.944 2.657 17.669 6.199 23.174 10.627 5.682 4.25 9.589 9.032 11.72 14.345 2.308 5.137 3.463 10.273 3.463 15.409 0 9.918-2.575 18.42-7.725 25.504-5.15 7.084-13.851 13.194-26.104 18.331 15.272 3.188 26.37 8.147 33.296 14.877 7.103 6.73 10.655 17.179 10.655 31.348a60.357 60.357 0 0 1-3.463 20.191c-2.309 6.376-6.482 12.132-12.519 17.268-5.86 5.136-14.118 9.21-24.772 12.22-10.655 3.011-24.24 4.517-40.754 4.517Zm-7.458-106.797c12.963 0 22.108-2.834 27.435-8.502 5.505-5.667 8.258-13.283 8.258-22.847 0-9.564-2.664-17.18-7.991-22.847-5.15-5.667-13.407-8.501-24.772-8.501-1.776 0-3.73.088-5.86.266-1.954.177-3.64.442-5.061.797v61.102c1.243.177 2.575.355 3.995.532h3.996Zm3.196 87.403c24.86 0 37.291-10.715 37.291-32.145 0-12.044-3.107-21.076-9.323-27.098-6.037-6.022-16.16-9.033-30.365-9.033-1.42 0-3.019.089-4.795.266h-3.995v67.213c1.243.177 2.841.354 4.794.532 1.954.177 4.085.265 6.393.265Zm103.82 17.268c-1.953-1.948-3.463-4.073-4.528-6.376-1.066-2.302-1.598-4.959-1.598-7.97 5.149 0 8.79-1.062 10.92-3.187 2.309-2.303 3.463-6.111 3.463-11.424v-76.777c0-4.605-1.243-7.881-3.729-9.83-2.486-2.125-7.103-3.188-13.851-3.188V78.637c4.262-2.48 9.323-4.605 15.183-6.376 5.86-1.948 11.631-3.454 17.314-4.517 5.682-1.24 10.121-1.86 13.318-1.86 4.084 0 7.014 1.418 8.79 4.251 1.953 2.834 2.93 8.944 2.93 18.331 1.953-3.72 4.794-7.35 8.524-10.892a50.582 50.582 0 0 1 13.051-9.033c4.795-2.302 9.767-3.453 14.917-3.453 8.346 0 14.295 2.125 17.846 6.376 3.552 4.25 5.328 9.74 5.328 16.47 0 7.617-1.954 13.815-5.86 18.597-3.907 4.782-9.323 7.173-16.249 7.173-6.037 0-10.832-1.682-14.383-5.047-3.552-3.543-5.328-7.528-5.328-11.955 0-2.834.267-5.048.799-6.642a45.77 45.77 0 0 0-8.257 2.922c-2.663 1.063-5.327 2.834-7.991 5.314v79.699c0 4.074.622 7.35 1.865 9.83 1.243 2.479 3.64 4.339 7.192 5.579 3.729 1.062 9.234 1.593 16.514 1.593 0 3.011-.355 5.668-1.065 7.97-.711 2.303-2.042 4.428-3.996 6.376h-71.119Zm175.16 2.391c-19.889 0-35.782-6.287-47.68-18.862-11.72-12.575-17.58-30.108-17.58-52.601 0-15.409 2.93-28.692 8.79-39.85 5.86-11.335 13.763-20.013 23.707-26.035 10.122-6.022 21.575-9.033 34.361-9.033 15.982 0 28.767 4.694 38.356 14.08 9.767 9.21 14.65 22.228 14.65 39.053 0 6.73-1.154 12.664-3.462 17.8-2.131 4.959-6.659 7.438-13.585 7.438h-57.535c.533 13.992 3.729 23.91 9.589 29.755 6.038 5.844 13.851 8.767 23.441 8.767 6.037 0 11.631-.886 16.781-2.657a57.213 57.213 0 0 0 14.383-7.97c1.598 1.417 2.841 3.631 3.729 6.642 1.066 2.833 1.599 5.224 1.599 7.173 0 2.833-2.043 6.376-6.127 10.626-3.907 4.074-9.589 7.704-17.047 10.892-7.281 3.188-16.071 4.782-26.37 4.782Zm-19.978-88.2h26.903c3.019 0 4.884-1.151 5.594-3.454.888-2.302 1.332-5.136 1.332-8.501 0-11.335-1.421-18.774-4.262-22.316-2.664-3.72-5.86-5.579-9.589-5.579-3.019 0-6.038 1.151-9.057 3.454-3.019 2.302-5.505 6.376-7.458 12.22-1.953 5.668-3.108 13.726-3.463 24.176Zm126.467 87.669L420.896 98.03c-1.598-4.782-3.463-8.236-5.594-10.36-1.953-2.303-5.238-3.454-9.855-3.454 0-2.834.444-5.668 1.331-8.502.888-3.01 2.309-5.49 4.262-7.438h59.932c1.954 1.948 3.463 4.427 4.529 7.438 1.065 2.834 1.598 5.668 1.598 8.502-3.552 0-6.571.974-9.057 2.922-2.308 1.948-3.462 4.959-3.462 9.032 0 .709.088 1.594.266 2.657a24.64 24.64 0 0 1 .799 2.922l6.926 36.131 7.99 37.458 11.721-37.458 7.724-27.629c2.131-8.325 4.44-15.32 6.926-20.988 2.663-5.845 7.191-8.767 13.584-8.767h20.51l13.851 57.118 11.72 36.662 5.86-36.662 8.79-37.459c.711-2.656 1.066-5.047 1.066-7.172 0-5.845-3.552-8.767-10.655-8.767 0-2.834.355-5.668 1.066-8.502.71-3.01 2.042-5.49 3.995-7.438h50.876c2.131 1.948 3.551 4.427 4.262 7.438a34.862 34.862 0 0 1 1.065 8.502c-4.972 0-8.879.885-11.72 2.656-2.664 1.594-4.706 4.782-6.126 9.564l-23.707 85.81c-1.776 6.907-3.64 12.486-5.593 16.736-1.954 4.251-4.529 7.351-7.725 9.299-3.019 1.948-7.458 2.922-13.318 2.922H543.69l-25.038-79.699-14.384 51.273c-2.309 8.678-4.706 15.32-7.192 19.925-2.486 4.428-6.748 7.173-12.785 8.235v.266h-27.17Z"/><path fill="#FFECB8" d="M750.12 210.937c-8.701 0-15.36-1.328-19.977-3.985-4.617-2.656-6.925-6.907-6.925-12.752v-85.543c0-5.668-1.599-10.007-4.795-13.018-3.196-3.188-7.369-4.782-12.519-4.782-3.374 0-7.014 1.151-10.921 3.454-3.729 2.125-6.57 5.047-8.524 8.767v77.574c0 5.136 1.066 8.855 3.197 11.158 2.308 2.125 6.126 3.187 11.453 3.187 0 5.491-2.042 10.273-6.126 14.346h-58.867c-4.084-4.073-6.126-8.855-6.126-14.346 5.327 0 9.056-1.062 11.187-3.187 2.309-2.303 3.463-6.022 3.463-11.158V36.662c0-4.074-1.154-7.262-3.463-9.564-2.308-2.303-7.103-3.454-14.383-3.454V12.752c4.439-2.303 9.589-4.428 15.449-6.376 6.037-1.948 11.986-3.454 17.846-4.516C666.127.62 671.099 0 675.006 0c4.084 0 7.014.974 8.79 2.922 1.775 1.771 2.663 4.87 2.663 9.299v52.335l-.532 21.254c4.617-5.845 10.565-10.804 17.846-14.878 7.281-4.073 15.538-6.11 24.772-6.11 25.216 0 37.824 13.106 37.824 39.318v74.386c0 9.033 4.262 14.346 12.785 15.94l.267 7.704c-6.393 5.845-16.16 8.767-29.301 8.767Zm84.334.266c-13.318 0-24.15-3.631-32.496-10.892-8.169-7.439-12.253-16.914-12.253-28.426 0-11.512 3.729-20.811 11.187-27.895 7.636-7.084 19.356-10.627 35.16-10.627 5.15 0 10.566.532 16.248 1.594 5.683.886 10.3 2.303 13.851 4.251v-35.333c0-7.439-1.953-12.575-5.86-15.409-3.729-3.01-8.346-4.516-13.851-4.516-5.86 0-10.654 1.417-14.383 4.25 3.551 1.24 6.126 3.188 7.724 5.845 1.599 2.48 2.398 5.225 2.398 8.236 0 5.844-2.131 10.538-6.393 14.08-4.084 3.365-9.145 5.048-15.183 5.048-6.748 0-12.164-1.949-16.248-5.845-4.084-4.074-6.127-9.121-6.127-15.143s2.043-11.69 6.127-17.003c4.084-5.49 10.388-10.006 18.912-13.548 8.701-3.543 19.888-5.314 33.562-5.314 35.693 0 53.539 14.08 53.539 42.241v70.401c0 8.501 4.084 13.637 12.253 15.409v8.501c-2.309 3.365-6.215 5.933-11.72 7.704-5.505 1.594-10.832 2.391-15.982 2.391-12.075 0-20.599-4.162-25.571-12.486-3.552 3.188-8.258 6.11-14.118 8.767-5.86 2.479-12.785 3.719-20.776 3.719Zm17.314-21.519c2.486 0 5.061-.354 7.724-1.062 2.664-.886 4.884-1.949 6.659-3.188v-25.77c-1.775-1.24-4.084-2.302-6.925-3.188-2.664-.885-5.327-1.328-7.991-1.328-4.617 0-8.612 1.505-11.986 4.516-3.374 2.834-5.061 7.35-5.061 13.549 0 4.782 1.598 8.767 4.794 11.955 3.197 3.011 7.458 4.516 12.786 4.516Zm130.598 21.519c-12.431 0-22.109-3.808-29.034-11.424-6.926-7.615-10.388-17.888-10.388-30.817V95.905c0-3.011-1.155-5.136-3.463-6.376-2.309-1.24-5.505-1.86-9.589-1.86V75.98c2.308-1.947 7.103-3.984 14.383-6.11 7.459-2.302 15.805-3.453 25.039-3.453 6.925 0 11.453.797 13.584 2.391 2.309 1.594 3.463 5.49 3.463 11.69v89.262c0 5.314.888 9.387 2.664 12.221 1.775 2.834 4.883 4.251 9.322 4.251 3.733 0 7.283-1.152 10.653-3.454 3.55-2.302 6.48-4.959 8.79-7.97V95.905c0-3.011-1.33-5.136-3.99-6.376-2.67-1.24-6.31-1.86-10.92-1.86V75.98c2.48-1.947 7.37-3.984 14.65-6.11 7.28-2.302 15.89-3.453 25.83-3.453 6.93 0 11.63.797 14.12 2.391 2.49 1.594 3.73 5.49 3.73 11.69v97.764c0 4.25 1.06 7.792 3.2 10.626 2.3 2.834 5.5 4.428 9.58 4.782v7.439c-2.84 3.365-7.36 5.933-13.58 7.704-6.04 1.594-11.9 2.391-17.58 2.391-5.86 0-11.01-1.505-15.45-4.516-4.26-3.188-7.1-7.705-8.52-13.549-8.7 12.043-20.868 18.065-36.494 18.065Zm158.764.797c-6.39 0-12.87-.708-19.44-2.125-6.39-1.417-12.34-3.454-17.85-6.111-5.32-2.656-9.68-5.933-13.05-9.829-3.37-4.074-5.06-8.679-5.06-13.815 0-6.199 1.78-11.158 5.33-14.877 3.55-3.896 8.08-5.845 13.58-5.845 4.97 0 9.15 1.594 12.52 4.782 3.55 3.188 5.33 7.35 5.33 12.487 0 2.302-.36 4.339-1.07 6.11-.71 1.594-1.77 3.365-3.19 5.313 1.59 1.594 4.44 2.745 8.52 3.454 4.08.708 8.08 1.063 11.99 1.063 6.21 0 11.01-1.152 14.38-3.454 3.37-2.303 5.06-5.136 5.06-8.501 0-5.314-2.84-9.83-8.52-13.549-5.69-3.897-12.17-7.793-19.45-11.689a556.68 556.68 0 0 1-19.71-11.158c-6.39-4.074-11.81-9.121-16.25-15.143-4.26-6.022-6.39-13.638-6.39-22.847 0-11.69 4.88-21.342 14.65-28.958 9.77-7.615 23.62-11.423 41.55-11.423 12.43 0 22.38 1.594 29.84 4.782 7.45 3.01 12.87 6.907 16.24 11.689 3.38 4.605 5.07 9.475 5.07 14.611 0 5.491-1.78 9.919-5.33 13.284-3.38 3.188-7.55 4.782-12.52 4.782-4.44 0-8.35-1.329-11.72-3.985-3.37-2.834-5.06-6.465-5.06-10.893 0-2.125.35-4.427 1.06-6.907.71-2.48 1.69-4.516 2.93-6.11-1.95-1.594-4.26-2.657-6.92-3.188-2.49-.709-5.51-1.063-9.06-1.063-5.86 0-10.39 1.417-13.58 4.25-3.02 2.657-4.53 5.934-4.53 9.83 0 6.022 2.84 10.981 8.52 14.878 5.86 3.896 12.34 7.704 19.45 11.423a255.674 255.674 0 0 1 19.18 10.892c6.39 3.897 11.72 8.767 15.98 14.612 4.26 5.845 6.39 13.372 6.39 22.581 0 9.919-2.84 17.888-8.52 23.91-5.69 5.845-13.06 10.095-22.11 12.752-8.88 2.657-18.29 3.985-28.24 3.985Z"/></svg>