<svg xmlns="http://www.w3.org/2000/svg" width="24" height="24" fill="none"><path fill="#1D4E1A" fill-rule="evenodd" d="M9.933 4.904c-1.63.132-1.971.276-1.524.644.118.105 1.248.145 3.706.119 4.403-.04 5.1.039 5.639.617.565.605 1.643.789 1.643.276 0-.236-.933-1.09-1.38-1.261-.894-.342-5.81-.579-8.084-.395ZM5.478 5.916C3.007 8.387 4.453 19.112 7.173 18.508c.513-.119.5-.303-.052-.526-1.065-.447-1.34-1.314-1.065-3.3.158-1.13.184-2.076.118-4.6-.092-3.456 0-3.942.75-4.192.433-.131.197-.381-.395-.434-.486-.04-.604.013-1.051.46Zm9.266 1.499c-.776.617-.342 1.432.775 1.432.802 0 1.249-.38 1.249-1.064 0-.67-1.328-.92-2.024-.368Zm3.51.276c-.382 1.104-.356 1.735-.356 7.965-.04.118.355 1.498-1.354 1.866-.67.145-1.866.184-4.416.21-4.271.066-4.482.092-4.008.644.749.907 8.53 1.104 10.186.263 1.051-.539 1.498-2.707 1.498-7.32-.026-2.76-1.025-5.153-1.55-3.628ZM9.21 10.083c-2.209 2.063-.106 5.69 3.64 5.086 2.353-.38 3.168-5.283.841-5.283-.46 0-.525.197-.157.486 1.892 1.485-.158 4.587-2.445 3.85-2.34-.748-1.814-4.455.75-4.455.578 0 .932-.263.354-.5-.5-.21-1.617-.446-2.983.816Z" clip-rule="evenodd"/></svg>