<svg xmlns="http://www.w3.org/2000/svg" width="98" height="24" fill="none"><g fill="#FFECB8" clip-path="url(#a)"><path d="M73.342 13.775c0-1.946-1.566-3.476-3.54-3.476-1.947 0-3.54 1.53-3.54 3.476s1.593 3.475 3.54 3.475c1.974 0 3.54-1.529 3.54-3.475Zm2.887-5.69v11.39h-2.943v-1.029a5.815 5.815 0 0 1-3.727 1.316c-3.484 0-6.204-2.66-6.204-5.987 0-3.318 2.73-5.987 6.204-5.987 1.407 0 2.702.472 3.727 1.316v-1.02h2.943Zm9.782 8.804h-2.217c-.671 0-1.109-.287-1.109-.899v-5.33h3.316V8.085h-3.316V4.841h-2.972v3.243h-2.235v2.586h2.235v6.052c0 1.53 1.109 2.743 3.103 2.743H86V16.89h.01Zm6.707 2.873c3.4 0 5.32-1.585 5.32-3.772 0-1.557-1.137-2.716-3.513-3.216l-2.515-.5c-1.453-.26-1.919-.529-1.919-1.057 0-.686.699-1.103 1.994-1.103 1.406 0 2.43.37 2.729 1.631h2.944c-.159-2.372-1.92-3.957-5.478-3.957-3.074 0-5.235 1.242-5.235 3.642 0 1.66 1.192 2.743 3.754 3.272l2.804.63c1.109.213 1.407.5 1.407.945 0 .714-.839 1.159-2.19 1.159-1.695 0-2.673-.37-3.046-1.631h-2.971c.437 2.372 2.245 3.957 5.915 3.957ZM51.478 4.043h11.095v2.633h-8.096v3.772h7.882v2.558h-7.882v3.818h8.096v2.632H51.478V4.043Zm-5.273 6.164V8.14h-.791c-1.258 0-2.19.575-2.749 1.474v-1.39h-2.254v11.223h2.273V13.07c0-1.742 1.08-2.863 2.571-2.863h.95Zm-16.358 2.595c.41-1.715 1.826-2.864 3.512-2.864s3.111 1.14 3.493 2.864h-7.005Zm3.559-4.792c-3.354 0-5.906 2.66-5.906 5.83 0 3.346 2.654 5.857 6.11 5.857 2.097 0 3.81-.899 4.956-2.4l-1.648-1.187c-.857 1.122-1.985 1.65-3.317 1.65a3.828 3.828 0 0 1-3.81-3.188h9.353v-.723c.01-3.355-2.422-5.839-5.738-5.839ZM20.4 17.76c-2.208 0-3.968-1.742-3.968-3.892 0-2.178 1.779-3.893 3.968-3.893 2.161 0 3.94 1.715 3.94 3.893.01 2.15-1.77 3.892-3.94 3.892Zm-6.195 1.696h2.255v-1.409c1.034 1.038 2.506 1.669 4.099 1.669 3.381 0 6.036-2.623 6.036-5.858 0-3.253-2.655-5.876-6.037-5.876-1.602 0-3.046.64-4.08 1.669V4.043h-2.273v15.413ZM6.204 17.65c2.19 0 3.875-1.65 3.875-4.097v-9.51h2.367v15.404h-2.348V18.02c-1.062 1.075-2.524 1.696-4.173 1.696-3.382 0-5.972-2.4-5.972-6.034V4.043H2.33v9.51c0 2.493 1.667 4.096 3.875 4.096Z"/></g><defs><clipPath id="a"><path fill="#fff" d="M0 0h98v24H0z"/></clipPath></defs></svg>