<svg xmlns="http://www.w3.org/2000/svg" width="24" height="24" fill="none"><path fill="#1D4E1A" d="M7.43 13.002c.238 1.985.841 2.983 2.192 3.617 1.268.592 1.445.083.478-.842-1.964-1.892-2.4-3.17-1.143-3.783.655-.312 5.508-.125 5.508-.125a.832.832 0 0 1 .853.883c-.136 2.131-.832 3.898-2.983 3.908-.561 0-.738.218-.354.426 2.027 1.092 4.48-1.403 4.532-4.604.02-1.444-2.744-1.88-8.522-1.35-.749.082-.77.145-.562 1.87Zm5.82-4.064c.373.156.477.291.519.676.073.8.696.78.696-.01V9.01h.863c1.33 0 1.278-.613-.062-.831l-.728-.115-.041-.644c-.052-.8-.447-1.112-.863-.696-.094.093-.177.384-.177.654 0 .437-.041.478-.436.478-.853 0-.697.686.228 1.081Z"/><path fill="#1D4E1A" d="M14.933 4.802c-1.788-.26-2.1.041-.759.748C15.744 6.382 18 9 18.3 11.412c.374 2.972-2.068 6.308-5.04 6.86-4.542.84-8.907-4.044-7.431-8.326.956-2.775 3.326-5.175 5.165-4.76 1.07.24 1.154-.343.312-.498a5.392 5.392 0 0 0-1.736 0c-5.29.914-7.587 8.792-3.637 12.492 4.344 4.064 11.255 2.39 13.74-3.316 1.496-3.43-1.186-8.553-4.74-9.062Z"/><path fill="#1D4E1A" d="M8.25 8.865c.53 0 .572.032.572.427 0 1.039.78 1.32.946.332.145-.862.176-.904.727-.904.728 0 .645-.457-.114-.644-.489-.125-.54-.177-.54-.624 0-.987-.645-1.434-.988-.686-.093.208-.166.53-.166.728 0 .332-.031.353-.561.27-1.123-.177-1.081 1.101.124 1.101Z"/></svg>