<svg xmlns="http://www.w3.org/2000/svg" width="24" height="24" fill="none"><path fill="#1D4E1A" fill-rule="evenodd" d="m12.052 7.867.2.658c-.167.134-1.606 1.416-1.695 1.271-.01-.01-2.487-1.305-4.16-.847-1.83.502-3.157 2.42-2.878 4.852.323 2.766 4.73 4.272 6.904 2.353l.413-.368c.156.067 1.26.592 1.439.592.09 0 .112.067.056.2-1.283 3.19 4.004 5.879 6.648 3.369 1.584-1.506.825-5.388-1.116-5.644-.68-.09-.736.19-.156.78 2.008 2.075-.602 6.314-2.867 4.652-2.465-1.796-.635-5.443 1.74-5.466.324 0 .425-.19.18-.323-.938-.502-2.321-.1-3.392.993l-.647.758a68.543 68.543 0 0 1-1.416-.58l.256-.636c.446-1.115.469-2.03.045-3.011-.313-.748-.335-.848-.168-.949.246-.145 1.317-.948 1.495-1.081l.591.39c3.101 2.052 7.005.245 6.994-3.246-.01-1.818-1.45-2.777-2.956-3.224-4.517-1.316-6.28 2.03-5.51 4.507Zm6.938-1.595c0 3.29-4.027 4.751-5.142 1.862-.446-1.17-.246-5.287 3.28-4.216 1.003.301 1.862 1.149 1.862 2.354Zm-8.567 4.573c.915 1.338.179 4.071-1.818 5.086-1.16.592-2.71-.178-3.168-1.572-.401-1.194.023-2.666.748-3.626 1.305-1.729 3.77-.569 4.238.112Z" clip-rule="evenodd"/></svg>