<svg xmlns="http://www.w3.org/2000/svg" width="24" height="24" fill="none"><path fill="#1D4E1A" d="M18.956 4.922v.08c0 .16-.067.4-.2.722-.135.294-.295.615-.482.962-.16.321-.334.629-.521.923-.16.294-.268.494-.321.601l-.401.642c-.134.187-.2.334-.2.441 0 .214.053.414.16.602.107.187.16.427.16.722-.08.026-.16.16-.24.4-.054.214-.08.388-.08.522 0 .347.08.628.24.842.187.187.307.401.36.642.054.214.108.494.161.842.08.348.147.708.2 1.083.08.374.148.735.201 1.083.054.347.08.641.08.882 0 .294-.08.575-.24.842a2.4 2.4 0 0 1-.562.722 4.473 4.473 0 0 1-.681.561 1.92 1.92 0 0 1-.642.241h.04c0 .027-.174.107-.521.24a2.891 2.891 0 0 1-.923.161c-.08 0-.2-.027-.36-.08h.04c0-.027-.054-.08-.161-.16a4.4 4.4 0 0 0-.361-.321 4.365 4.365 0 0 0-.32-.361c-.108-.107-.161-.188-.161-.241v-.28c.026-.108.04-.201.04-.281 0 .026-.094-.2-.28-.682-.161-.482-.268-1.096-.322-1.845.054 0 .107-.04.16-.12.08-.08.121-.147.121-.2a.861.861 0 0 0-.16-.482c-.08-.187-.12-.428-.12-.722 0-.374.08-.829.24-1.364.16-.561.28-1.11.36-1.644.027-.08.108-.227.241-.441.134-.24.281-.495.442-.762.16-.267.307-.508.44-.722.134-.24.215-.4.241-.481.08-.428.174-.735.281-.922.134-.188.268-.335.401-.442a3.68 3.68 0 0 1 .481-.32c.188-.134.401-.361.642-.682v-.04a.66.66 0 0 0-.04-.2v-.241c0-.08.013-.134.04-.16.054-.028.134-.094.24-.201.108-.134.228-.268.362-.401.16-.16.307-.295.44-.402.161-.106.308-.16.442-.16.107 0 .28.067.521.2.268.134.441.268.522.402Zm-7.38 0v.08c0 .16-.066.4-.2.722-.134.294-.294.615-.481.962-.16.321-.335.629-.522.923-.16.294-.267.494-.32.601l-.402.642c-.133.187-.2.334-.2.441 0 .214.053.414.16.602.107.187.16.427.16.722-.08.026-.16.16-.24.4a2.28 2.28 0 0 0-.08.522c0 .347.08.628.24.842.188.187.308.401.361.642.054.214.107.494.16.842.081.348.148.708.201 1.083.08.374.147.735.2 1.083.054.347.081.641.081.882 0 .294-.08.575-.24.842a2.4 2.4 0 0 1-.562.722 4.47 4.47 0 0 1-.682.561 1.92 1.92 0 0 1-.641.241h.04c0 .027-.174.107-.522.24a2.88 2.88 0 0 1-.922.161c-.08 0-.2-.027-.361-.08h.04c0-.027-.053-.08-.16-.16a4.392 4.392 0 0 0-.361-.321 4.364 4.364 0 0 0-.321-.361c-.107-.107-.16-.188-.16-.241v-.28c.026-.108.04-.201.04-.281 0 .026-.094-.2-.281-.682-.16-.482-.268-1.096-.321-1.845.053 0 .107-.04.16-.12.08-.08.12-.147.12-.2a.861.861 0 0 0-.16-.482c-.08-.187-.12-.428-.12-.722 0-.374.08-.829.24-1.364.161-.561.281-1.11.362-1.644.026-.08.107-.227.24-.441.134-.24.28-.495.441-.762.16-.267.308-.508.442-.722.133-.24.213-.4.24-.481.08-.428.174-.735.28-.922a2.21 2.21 0 0 1 .402-.442 3.68 3.68 0 0 1 .481-.32c.187-.134.401-.361.642-.682v-.04a.66.66 0 0 0-.04-.2v-.241c0-.08.013-.134.04-.16.053-.028.134-.094.24-.201a5.46 5.46 0 0 1 .802-.802c.161-.107.308-.16.442-.16.107 0 .28.066.521.2.267.133.441.267.521.4Z"/></svg>