<svg xmlns="http://www.w3.org/2000/svg" width="24" height="24" fill="none"><path fill="#FCF3D9" d="M20.25 10.382c-2.802-2.76-5.113-4.788-6.628-5.708-1.276-.773-2.29-.888-3.502.053-1.286 1.003-3.053 2.812-5.175 4.62-2.666 2.28-1.997 4.088-.168 4.266l.837.083c.031.648.167 4.422.25 4.976.032.23 0 .492-.083.575-.617.617 1.422.826 5.332.555 7.443-.523 8.039-.617 7.516-1.203-.188-.209-.02-5.363-.02-5.363l.47-.157c1.725-.554 2.206-1.683 1.17-2.697Zm-9.42 8.249c-.146-1.15-.334-2.719-.031-3.617.46-.941 1.223-1.234 1.944-.764.649.429.9 1.171.91 2.729l.01 1.411c0-.01-2.237.167-2.833.24Zm6.388-.356-2.405.063s-.02-.659-.083-1.568c-.147-2.373-.826-3.22-2.593-3.21-2.185.01-2.812 1.182-2.373 4.454l.094.7H7.621l-.408-4.82c-.094-1.097.199-1.473 3.032-3.993 1.819-1.61 1.443-1.547 2.645-.46.857.774 4.317 3.764 4.317 3.764v5.07h.01Zm1.547-6.053c-.544.544-.993.303-3.157-1.735-4.035-3.785-3.46-3.764-7.13-.23-1.212 1.16-1.923 1.84-2.383 2.195-.962.732-1.62-.387-1.098-1.181.387-.596 1.328-1.547 3.168-3.429 3.355-3.44 3.408-3.481 4.192-2.885.209.156.993.867 1.725 1.568.01.01 4.4 4.056 4.484 4.13.638.543.7 1.065.2 1.567Z"/><path fill="#FCF3D9" d="M10.945 10.08c-.857.376-1.066 1.682-.366 2.34.7.66 2.415.471 2.896-.313.91-1.484-.742-2.801-2.53-2.028Zm1.558.543c.565.397.136 1.537-.585 1.537-.628 0-.69-1.119-.095-1.579.283-.22.314-.21.68.042Z"/></svg>