<svg xmlns="http://www.w3.org/2000/svg" width="24" height="24" fill="none"><path fill="#FCF3D9" d="M17.072 5.502c-2.704-1.374-4.378-.183-2.371.29 5.087 1.202 5.784 7.48.901 10.99-5.795 4.153-13.072-1.471-9.38-7.245C7.79 7.09 9.56 5.77 11.331 5.717c1.556-.043 1.062-.827-.526-.827-3.917 0-8.135 4.99-7.352 8.704.634 3.037 3.123 5.012 6.933 5.484 8.876 1.105 14.22-9.756 6.686-13.576Z"/><path fill="#FCF3D9" d="M10.504 13.83c-.472-.751-.515-.783-.987-.751-1.234.096-.419 1.856 1.138 2.436 1.288.483 3.284.225 3.96-.494 1.02-1.084.772-2.8-.3-2.093-.065.043-.215.301-.333.559-.795 1.76-2.501 1.92-3.478.343Zm4.669-3.434c-.386-.923-.987-1.149-1.417-.526-.515.762-.225 1.47.601 1.47.827 0 1.084-.29.816-.944Zm-4.453.15c0-.751-.484-1.095-1.15-.816-.6.247-.88 1.385-.45 1.782.676.612 1.6.043 1.6-.966Z"/></svg>