<svg xmlns="http://www.w3.org/2000/svg" width="24" height="24" fill="none"><path fill="#FCF3D9" d="M5.994 15.456c-3.763-4.863-3.2-9.501 1.3-10.639 1.375-.35 3.138.05 4.113.925l.5.45.738-.437c4.262-2.575 9.513 2.175 7.288 6.588-2.025 4.013-8.613 8.326-9.964 6.526-.4-.538-.2-.613.863-.35 1.013.25 5.688-3.9 6.85-6.088 1.4-2.626 1.126-4.05-1.112-5.85-.925-.739-2.363-.413-3.488.812-.887.95-1.813 1.025-2.575-.175-2.163-3.376-5.713-.7-4.7 3.537.425 1.75.887 2.626 2.65 4.95 1.2 1.576 1.237 1.651.837 1.864-.762.412-1.95-.35-3.3-2.113Z"/><path fill="#FCF3D9" d="M15.282 8.23c-.612-.112-.1-.8.475-.6.476.175 1.138.463 1.4 1.2.288.775-.287 1.525-.612 1.438-.288-.075-.375-.4-.338-1.063.038-.662-.312-.862-.925-.975Zm1.401 3.963c-.813.188-1.426-.425-1.063-.838.275-.3 1.313-.325 1.613-.025.25.263.087.713-.55.863Z"/></svg>