<svg xmlns="http://www.w3.org/2000/svg" width="24" height="24" fill="none"><path fill="#FFECB8" d="M13.607 11.106c.274.568.435.635.928.417 1.288-.578-.616-3.326-2.027-2.928-.446.123-1.223.521-.275.986.559.265 1.013.776 1.373 1.525Zm-.947 4.254c-2.152-1.061-2.559-.322-2.559.104 0 .37-.322.521-1.137-.483-1.43-1.762-1.591-2.208-.843-2.369 1.45-.312 1.506-1.383.199-3.714-.966-1.724-2.056-2.444-3.174-2.103-.91.275-1.942 1.79-2.179 3.202-.256 1.535.332 2.397.588 3.013.91 2.15 4.054 6.045 5.476 6.765 3.164 1.61 6.622 1.137 6.423-.891-.133-1.383-.957-2.615-2.795-3.524Zm-.266 4.12c-4.036-.065-8.337-5.826-8.337-8.933 0-1.734 1.24-3.913 1.715-3.05.009.009 2.131 3.543 2.292 4.168.048.19 0 .237-.407.37-1.232.407-1.393 1.041-.654 2.557 1.222 2.52 3.78 3.392 3.95 1.365.096-1.071.778-.796 2.388 1.316 1.374 1.82.967 2.236-.947 2.208Z"/><path fill="#FFECB8" d="M12.005 6.18c-.919.454-.88.672.133.852 2.387.417 4.396 2.814 4.396 5.249 0 1.09.881 1.506 1.46-.38.795-2.605-3.667-6.877-5.989-5.722Z"/><path fill="#FFECB8" d="M12.602 3.432c-1.108.398-1.013.843.209.928 4.036.285 7.276 4.69 6.49 8.82-.18.967.663 1.393 1.458-.293 1.886-3.989-4.083-10.895-8.157-9.455Z"/></svg>