<svg xmlns="http://www.w3.org/2000/svg" width="24" height="24" fill="none"><path fill="#FFECB8" d="M17.989 8.403c-.032-.042-.064-.096-.064-.149-.157-1.833-.42-3.059-.42-3.059a.507.507 0 0 0-.421-.394l-1.451-.181h-.043a.307.307 0 0 0-.305.309v.511c0 .011-.01.022-.02.022h-.011a20.68 20.68 0 0 0-2.924-2.238A1.293 1.293 0 0 0 11.614 3c-.263 0-.515.085-.715.224-4.996 3.122-7.752 8.216-7.857 8.494A.482.482 0 0 0 3 11.93c0 .234.158.437.379.49l1.44.277a.5.5 0 0 1 .358.426c.01.256.284 6.011.631 7.503a.5.5 0 0 0 .484.373h.01c.842-.021 1.61-.032 2.441-.043h.074a.163.163 0 0 0 .157-.16c-.031-.5-.105-1.651-.168-2.856 0-.032 0-.064-.01-.095a.318.318 0 0 0-.148-.246 1.606 1.606 0 0 1-.757-1.268c-.074-2.014-.116-4.348 0-6.17a.296.296 0 0 1 .284-.277c.158 0 .295.127.295.287v.022c-.074 1.214-.074 2.653-.053 4.07 0 .193.158.342.347.342.19 0 .337-.16.337-.352-.021-1.428-.021-2.877.052-4.092a.296.296 0 0 1 .284-.277c.158 0 .295.127.295.287v.022c-.074 1.214-.074 2.643-.053 4.05 0 .191.158.34.347.34.19 0 .337-.16.337-.351-.021-1.418-.021-2.867.052-4.082a.296.296 0 0 1 .284-.277c.158 0 .295.128.295.288v.02c-.105 1.77-.074 4.019 0 5.99v.074c0 .544-.263 1.013-.673 1.301a.275.275 0 0 0-.127.224s-.031.298.095 1.769c.063.64.105 1.087.126 1.279.01.074.074.138.148.138h2.188l.82.011c.074 0 .137-.064.158-.139.189-1.758.231-2.738.231-2.738a.172.172 0 0 0-.158-.17l-.988-.16c-.158-.033-.253-.129-.284-.246-.021-.075-.01-.16-.01-.16.399-5.85 2.303-7.833 2.303-7.833a1 1 0 0 1 .094-.085.364.364 0 0 1 .179-.064c.126 0 .242.085.284.192 0 0 .01.042.021.138.168 1.844.084 4.977-.021 7.418-.084 2.078-.19 3.698-.19 3.698 0 .064.053.117.116.117l1.641.032h.01a.51.51 0 0 0 .485-.373c.347-1.492.61-7.247.63-7.503a.501.501 0 0 1 .358-.426l1.441-.277a.513.513 0 0 0 .337-.703c-.074-.118-.82-1.524-2.22-3.283Z"/></svg>