<svg xmlns="http://www.w3.org/2000/svg" width="24" height="24" fill="none"><path fill="#1D4E1A" d="m19.808 9.78-.335-1.128.376-.49c1.389-1.828-1.19-4.689-3.236-3.592-.22.114-.48.125-.856.03-.69-.177-2.945-.553-3.404-.605-1.524-.188-1.107.554-.45.616 1.483.157 1.452.073 1.055.491-.616.658-.083 3.226.898 4.343.888 1.013 3.039 1.556 3.707.93 1.326-1.253.96 4.552-.407 6.327-4.26 5.544-13.24.198-11.62-6.923l.187-.835.773.512c1.346.898 1.9.449.866-.7-1.691-1.869-1.117-4.25.658-2.735.595.511 1.326.584 1.629.177.898-1.232 1.43-.793 1.42.522 0 .71-.335 1.19-1.702 2.464-1.2 1.117-1.253 1.493-.209 1.493.7 0 2.965-2.683 3.164-3.737.281-1.483-1.723-2.694-2.913-1.765-.272.22-.439.261-.543.157-.105-.105-.084-.293.25-.48.334-.189.846-.335.731-.648-.157-.418-1.315.125-1.472.22-.157.083-.72.448-1.2.448-1.65 0-2.277.501-2.141 1.702.073.668.031.856-.345 1.524-2.933 5.2 1.034 11.767 7.184 11.892 6.254.147 9.688-4.29 7.935-10.21Zm-2.11-1.086c-1.127 1.252-1.294 1.305-2.223.762-.742-.439-1.347-1.577-1.473-2.777-.125-1.264.522-1.598 1.63-.846l.542.376.543-.355c1.556-1.034 3.602-.063.982 2.84Z"/><path fill="#1D4E1A" d="M6.85 12.108c.074.219.23.95.356 1.628.929 5.064 9.052 4.97 9.47-.104.052-.626.166-1.18.25-1.232.73-.47-1.222-1.096-2.6-.825-.428.084-2.067.105-4.02.052-3.612-.104-3.633-.104-3.455.48Zm8.854.344v.773c0 2.871-5.126 4.448-6.828 2.088-.585-.804-.574-1.295-.658-2.809 4.803-.156 4.918-.135 7.486-.052Z"/></svg>