<svg xmlns="http://www.w3.org/2000/svg" width="24" height="24" fill="none"><path fill="#1D4E1A" fill-rule="evenodd" d="M13.167 2.648c-2.08 1.056-6.768 6.272-8.296 9.195-.922 1.765-.81 1.866 2.17 2.034l2.124.124c-3.856 6.745-3.462 6.025-3.496 6.093-.843 1.45.303 2.417 1.517 1.281.012-.01 10.432-8.104 12.298-10.791.214-.304.158-.652-.315-1-.775-.574-1.82-.754-5.631-1.069-.596-.044-.866-.112-.821-.202.281-.686 1.36-3.563 1.877-4.687.607-1.316.551-1.99-1.427-.978Zm-.776 2.518c-.101.236-1.349 3.226-1.405 3.35-.292.584-.101.888.63.966 2.428.259 3.394.349 4.372.394 1.619.078 1.63.01-.079 1.73-1.82 1.844-6.474 6.116-6.576 6.015-.09-.09 1.406-2.945 1.81-3.474.731-.955.506-1.09-1.82-1.09A32.35 32.35 0 0 1 7.13 13a.64.64 0 0 1-.517-.944c.843-1.54 2.35-3.463 4.856-6.217 1.147-1.236 1.17-1.259.922-.674Z" clip-rule="evenodd"/></svg>