<svg xmlns="http://www.w3.org/2000/svg" width="24" height="24" fill="none"><path fill="#1D4E1A" fill-rule="evenodd" d="M9.47 6.06c.017.887 1.052 2.314 1.756 2.044.305-.122.305-.252-.026-1.2-.791-2.252-1.748-1.557-1.73-.844Zm5.739 2.01c-.243.686.6.808 1.183.173.59-.652 1.226-1.626 1.565-2.287.374-.635-.357-.956-.966-.435-.721.609-1.617 2.07-1.782 2.548ZM3.226 7.538c-.539.217 1.27 2.46 2 2.478.853.017.922-.174.33-.965-.93-1.252-1.712-1.765-2.33-1.513Zm8.174 3.226a9.765 9.765 0 0 0-.852.974c-1.27 1.895-1.287 1.913-1.87 1.47-1.347-1.01-3.565-1.696-3.13.06.27 1.061 1.07 3 1.278 3.644.54 1.695.826 1.974 1.783 1.747 2.374-.573 5.765-.59 8.191-.043.6.14.635.07.696-1.14.122-2.443 1.53-4.825 1.53-5.59 0-.861-1.626-.218-3.834 1.513l-.226.173-.322-.217c-.661-.443-.992-.095-.618.644.305.6.557.8 1.226.478.383-.183.914-.53 1.661-1.061.296-.209.54-.357.54-.33 0 .121-.531 2.4-.531 2.408l-1.322-.113c-1.052-.043-1.174.513-.087.679.113.017 1.226.156 1.226.156s-.043.487-.165.765c-.13.279-.348.348-.704.226-2.791-.921-7.34.2-7.348.2-.165.026-1.678-3.965-1.557-4.087.018-.017.2.096.41.252 2.356 1.714 2.6 1.661 4.156-.834l.73-1.174.287.426c.835 1.243 2.018.696 1.357-.217-.226-.305-.6-.757-1.2-1.461-.27-.322-.67-.183-1.305.452Zm11.313-.13c-.313.182-1.948 1.747-2.139 2.043-.409.652.444.8 1.218.209.904-.687 2.182-1.87 2.182-2.027.009-.313-.835-.47-1.26-.226ZM1.174 14.8c1.27.313 2 .39 2.287.234.47-.252.252-.434-.86-.713-.105-.026-1.131-.313-1.836-.313-.504 0-1.626.279.41.792Z" clip-rule="evenodd"/></svg>