<svg xmlns="http://www.w3.org/2000/svg" width="24" height="24" fill="none"><path fill="#1D4E1A" d="M14.56 3.962c.43-.875-.13-1.506-.724-.81-.438.516-1.054 1.986-.947 2.265.251.638.94.036 1.671-1.455Zm-4.28 1.763c.452.144.61-.122.559-.939-.107-1.613-.602-2.28-1.448-1.943-.402.158.387 2.725.889 2.882Zm-4.524.416c1.018.76 1.728 1.097 2.086.968.445-.157.373-.308-.437-.946-1.033-.825-1.599-1.068-2.144-.925-.387.1-.265.33.495.903Zm8.797.273c-.244.265-.244.272-.058.408.531.388 1.097.08 3.342-1.835.602-.516-.395-.925-1.098-.445-.365.251-1.9 1.563-2.186 1.872Zm8.532 12.919c-.251-.208-.416-.595-.488-1.147-.05-.38-.853-6.66-1.219-8.317-.3-1.376-1.147-2.029-1.82-2.064-.424-.022-.668.258-.84.15-.466-.294-.595-.43-1.053-.387-.216.014-.696.143-.86.287-.108.086-.245.086-.546.007-1.477-.394-2.13 1.01-1.462 3.155.38 1.226.925.688.767-.753-.208-1.907-.165-2.108.43-1.893.323.115.337.143.308.538-.043.552.344 3.075.488 3.169.394.258.695-.201.566-.882-.351-1.907-.115-3.09.588-2.911.215.057.373.25.373.473.036 2.158.057 3.6.717 3.6.416 0 .416.014.323-1.858-.1-1.986.136-2.093.487-1.986.51.158.56 1.348.61 1.67 0 .008 1.132 7.45 1.132 7.464.137 1.692 1.19 3.177 1.929 2.703.15-.1-.13-.767-.43-1.018ZM5.376 10.3c0-1.155.014-1.248.244-1.506.408-.48.537-.043.616 2.165.058 1.613.065 1.635.409 1.735.444.136.487-.071.437-1.893-.05-1.641-.043-1.699.172-1.914.445-.452.538-.272.724 1.284.108.946.094 1.477-.057 2.294-.036.208 0 .272.172.322.466.122.545-.035.681-1.398.237-2.358-.086-3.068-1.42-3.083-.394-.007-.845-.057-1.003-.129-.158-.064-.516-.114-.796-.107a7.89 7.89 0 0 1-1.01-.05c-.33-.043-.603-.015-.797.071-.824.38-.968.825-1.935 6.052-.165.903-.352 2.029-.402 2.494-.1.868-.402 1.879-.803 2.71-.28.574-.215.782.23.782.795 0 1.54-1.29 1.72-2.99.093-.903.258-1.276.545-3.34.545-3.98.645-4.439 1.047-4.905.552-.638.502-.43.573 3.284 0 .158.144.28.301.265.287-.021.352-.287.352-2.143Zm13.371 9.886c-.452-.831-.488-.86-1.29-.946-.976-.107-1.728-.487-2.051-1.032-.71-1.212-1.706-4.431-1.592-5.14.158-.998.488-.926 1.026.207.423.889.702 1.204 1.699 1.95.444.33.717.624.896.975.222.43.301.502.56.502.881 0-.173-1.914-1.248-2.258-.46-.144-.602-.266-.602-.502 0-1.183-1.728-2.467-2.646-1.965-.789.438-.853 1.097-.308 3.083 1.046 3.807 1.634 4.582 3.599 4.754.767.071.953.2 1.34.925.531.996 1.14.315 1.019.157-.044-.064-.223-.38-.402-.71Z"/><path fill="#1D4E1A" d="M9.219 12.443c-.524.244-1.09.846-1.334 1.42-.18.423-.23.466-.63.53-.875.137-1.635.79-1.75 1.485-.1.616.53.932.76.372.301-.724.896-1.283 1.548-1.448.402-.1 1.205-.903 1.886-1.864.43-.61.717.215.416 1.176-.946 2.968-2.172 4.603-3.585 4.76-.595.072-.724.194-1.233 1.205-.337.66-.344.695-.165.825.43.315.839.014 1.119-.818.193-.573.215-.602.652-.71 1.649-.423 2.466-1.398 3.65-4.33.903-2.237.322-3.37-1.334-2.603Z"/></svg>